<svg xmlns="http://www.w3.org/2000/svg" width="200" height="200" viewBox="0 0 200 200">
  <!-- QR Code pattern - simplified representation -->
  <rect width="200" height="200" fill="white"/>
  
  <!-- Corner squares -->
  <rect x="10" y="10" width="30" height="30" fill="black"/>
  <rect x="15" y="15" width="20" height="20" fill="white"/>
  <rect x="20" y="20" width="10" height="10" fill="black"/>
  
  <rect x="160" y="10" width="30" height="30" fill="black"/>
  <rect x="165" y="15" width="20" height="20" fill="white"/>
  <rect x="170" y="20" width="10" height="10" fill="black"/>
  
  <rect x="10" y="160" width="30" height="30" fill="black"/>
  <rect x="15" y="165" width="20" height="20" fill="white"/>
  <rect x="20" y="170" width="10" height="10" fill="black"/>
  
  <!-- QR pattern simulation -->
  <rect x="50" y="20" width="5" height="5" fill="black"/>
  <rect x="60" y="20" width="5" height="5" fill="black"/>
  <rect x="70" y="20" width="5" height="5" fill="black"/>
  <rect x="80" y="20" width="5" height="5" fill="black"/>
  <rect x="90" y="20" width="5" height="5" fill="black"/>
  <rect x="100" y="20" width="5" height="5" fill="black"/>
  <rect x="110" y="20" width="5" height="5" fill="black"/>
  <rect x="120" y="20" width="5" height="5" fill="black"/>
  <rect x="130" y="20" width="5" height="5" fill="black"/>
  <rect x="140" y="20" width="5" height="5" fill="black"/>
  
  <!-- More QR pattern -->
  <rect x="20" y="50" width="5" height="5" fill="black"/>
  <rect x="30" y="50" width="5" height="5" fill="black"/>
  <rect x="50" y="50" width="5" height="5" fill="black"/>
  <rect x="70" y="50" width="5" height="5" fill="black"/>
  <rect x="90" y="50" width="5" height="5" fill="black"/>
  <rect x="110" y="50" width="5" height="5" fill="black"/>
  <rect x="130" y="50" width="5" height="5" fill="black"/>
  <rect x="150" y="50" width="5" height="5" fill="black"/>
  <rect x="170" y="50" width="5" height="5" fill="black"/>
  
  <!-- Line logo in center -->
  <circle cx="100" cy="100" r="25" fill="#00C300"/>
  <text x="100" y="108" text-anchor="middle" fill="white" font-family="Arial, sans-serif" font-size="14" font-weight="bold">LINE</text>
  
  <!-- Additional QR pattern -->
  <rect x="20" y="80" width="5" height="5" fill="black"/>
  <rect x="30" y="80" width="5" height="5" fill="black"/>
  <rect x="50" y="80" width="5" height="5" fill="black"/>
  <rect x="150" y="80" width="5" height="5" fill="black"/>
  <rect x="170" y="80" width="5" height="5" fill="black"/>
  
  <rect x="20" y="110" width="5" height="5" fill="black"/>
  <rect x="30" y="110" width="5" height="5" fill="black"/>
  <rect x="50" y="110" width="5" height="5" fill="black"/>
  <rect x="150" y="110" width="5" height="5" fill="black"/>
  <rect x="170" y="110" width="5" height="5" fill="black"/>
  
  <rect x="20" y="140" width="5" height="5" fill="black"/>
  <rect x="30" y="140" width="5" height="5" fill="black"/>
  <rect x="50" y="140" width="5" height="5" fill="black"/>
  <rect x="70" y="140" width="5" height="5" fill="black"/>
  <rect x="90" y="140" width="5" height="5" fill="black"/>
  <rect x="110" y="140" width="5" height="5" fill="black"/>
  <rect x="130" y="140" width="5" height="5" fill="black"/>
  <rect x="150" y="140" width="5" height="5" fill="black"/>
  <rect x="170" y="140" width="5" height="5" fill="black"/>
</svg>